<mxfile host="app.diagrams.net" agent="Mozilla/5.0 (Windows NT 10.0; Win64; x64) AppleWebKit/537.36 (KHTML, like Gecko) Chrome/128.0.0.0 Safari/537.36" version="24.7.10">
  <diagram name="Page-1" id="ux5n_YsABh4bewhAmcay">
    <mxGraphModel dx="2783" dy="686" grid="1" gridSize="10" guides="1" tooltips="1" connect="1" arrows="1" fold="1" page="1" pageScale="1" pageWidth="850" pageHeight="1100" math="0" shadow="0">
      <root>
        <mxCell id="0" />
        <mxCell id="1" parent="0" />
        <mxCell id="ZGMj8C8FijMz7QQSWvRR-8" value=": AddItemActivity" style="shape=umlLifeline;perimeter=lifelinePerimeter;whiteSpace=wrap;html=1;container=1;dropTarget=0;collapsible=0;recursiveResize=0;outlineConnect=0;portConstraint=eastwest;newEdgeStyle={&quot;curved&quot;:0,&quot;rounded&quot;:0};" vertex="1" parent="1">
          <mxGeometry x="80" y="170" width="100" height="800" as="geometry" />
        </mxCell>
        <mxCell id="ZGMj8C8FijMz7QQSWvRR-12" value="" style="html=1;points=[[0,0,0,0,5],[0,1,0,0,-5],[1,0,0,0,5],[1,1,0,0,-5]];perimeter=orthogonalPerimeter;outlineConnect=0;targetShapes=umlLifeline;portConstraint=eastwest;newEdgeStyle={&quot;curved&quot;:0,&quot;rounded&quot;:0};" vertex="1" parent="ZGMj8C8FijMz7QQSWvRR-8">
          <mxGeometry x="45" y="40" width="10" height="80" as="geometry" />
        </mxCell>
        <mxCell id="ZGMj8C8FijMz7QQSWvRR-14" value="" style="html=1;points=[[0,0,0,0,5],[0,1,0,0,-5],[1,0,0,0,5],[1,1,0,0,-5]];perimeter=orthogonalPerimeter;outlineConnect=0;targetShapes=umlLifeline;portConstraint=eastwest;newEdgeStyle={&quot;curved&quot;:0,&quot;rounded&quot;:0};" vertex="1" parent="ZGMj8C8FijMz7QQSWvRR-8">
          <mxGeometry x="40" y="150" width="20" height="630" as="geometry" />
        </mxCell>
        <mxCell id="ZGMj8C8FijMz7QQSWvRR-9" value=": ItemList" style="shape=umlLifeline;perimeter=lifelinePerimeter;whiteSpace=wrap;html=1;container=1;dropTarget=0;collapsible=0;recursiveResize=0;outlineConnect=0;portConstraint=eastwest;newEdgeStyle={&quot;curved&quot;:0,&quot;rounded&quot;:0};" vertex="1" parent="1">
          <mxGeometry x="500" y="170" width="100" height="800" as="geometry" />
        </mxCell>
        <mxCell id="ZGMj8C8FijMz7QQSWvRR-26" value="" style="html=1;points=[[0,0,0,0,5],[0,1,0,0,-5],[1,0,0,0,5],[1,1,0,0,-5]];perimeter=orthogonalPerimeter;outlineConnect=0;targetShapes=umlLifeline;portConstraint=eastwest;newEdgeStyle={&quot;curved&quot;:0,&quot;rounded&quot;:0};" vertex="1" parent="ZGMj8C8FijMz7QQSWvRR-9">
          <mxGeometry x="45" y="100" width="10" height="80" as="geometry" />
        </mxCell>
        <mxCell id="ZGMj8C8FijMz7QQSWvRR-49" value="" style="html=1;points=[[0,0,0,0,5],[0,1,0,0,-5],[1,0,0,0,5],[1,1,0,0,-5]];perimeter=orthogonalPerimeter;outlineConnect=0;targetShapes=umlLifeline;portConstraint=eastwest;newEdgeStyle={&quot;curved&quot;:0,&quot;rounded&quot;:0};" vertex="1" parent="ZGMj8C8FijMz7QQSWvRR-9">
          <mxGeometry x="45" y="740" width="10" height="30" as="geometry" />
        </mxCell>
        <mxCell id="ZGMj8C8FijMz7QQSWvRR-42" value="" style="html=1;points=[[0,0,0,0,5],[0,1,0,0,-5],[1,0,0,0,5],[1,1,0,0,-5]];perimeter=orthogonalPerimeter;outlineConnect=0;targetShapes=umlLifeline;portConstraint=eastwest;newEdgeStyle={&quot;curved&quot;:0,&quot;rounded&quot;:0};" vertex="1" parent="ZGMj8C8FijMz7QQSWvRR-9">
          <mxGeometry x="45" y="690" width="10" height="20" as="geometry" />
        </mxCell>
        <mxCell id="ZGMj8C8FijMz7QQSWvRR-10" value=": Dimensions" style="shape=umlLifeline;perimeter=lifelinePerimeter;whiteSpace=wrap;html=1;container=1;dropTarget=0;collapsible=0;recursiveResize=0;outlineConnect=0;portConstraint=eastwest;newEdgeStyle={&quot;curved&quot;:0,&quot;rounded&quot;:0};" vertex="1" parent="1">
          <mxGeometry x="300" y="330" width="100" height="180" as="geometry" />
        </mxCell>
        <mxCell id="ZGMj8C8FijMz7QQSWvRR-28" value="" style="html=1;points=[[0,0,0,0,5],[0,1,0,0,-5],[1,0,0,0,5],[1,1,0,0,-5]];perimeter=orthogonalPerimeter;outlineConnect=0;targetShapes=umlLifeline;portConstraint=eastwest;newEdgeStyle={&quot;curved&quot;:0,&quot;rounded&quot;:0};" vertex="1" parent="ZGMj8C8FijMz7QQSWvRR-10">
          <mxGeometry x="35" y="40" width="30" height="80" as="geometry" />
        </mxCell>
        <mxCell id="ZGMj8C8FijMz7QQSWvRR-11" value=": Item" style="shape=umlLifeline;perimeter=lifelinePerimeter;whiteSpace=wrap;html=1;container=1;dropTarget=0;collapsible=0;recursiveResize=0;outlineConnect=0;portConstraint=eastwest;newEdgeStyle={&quot;curved&quot;:0,&quot;rounded&quot;:0};" vertex="1" parent="1">
          <mxGeometry x="300" y="530" width="100" height="310" as="geometry" />
        </mxCell>
        <mxCell id="ZGMj8C8FijMz7QQSWvRR-16" value="" style="html=1;points=[[0,0,0,0,5],[0,1,0,0,-5],[1,0,0,0,5],[1,1,0,0,-5]];perimeter=orthogonalPerimeter;outlineConnect=0;targetShapes=umlLifeline;portConstraint=eastwest;newEdgeStyle={&quot;curved&quot;:0,&quot;rounded&quot;:0};" vertex="1" parent="ZGMj8C8FijMz7QQSWvRR-11">
          <mxGeometry x="32.5" y="40" width="35" height="250" as="geometry" />
        </mxCell>
        <mxCell id="ZGMj8C8FijMz7QQSWvRR-21" value="" style="html=1;points=[[0,0,0,0,5],[0,1,0,0,-5],[1,0,0,0,5],[1,1,0,0,-5]];perimeter=orthogonalPerimeter;outlineConnect=0;targetShapes=umlLifeline;portConstraint=eastwest;newEdgeStyle={&quot;curved&quot;:0,&quot;rounded&quot;:0};" vertex="1" parent="ZGMj8C8FijMz7QQSWvRR-11">
          <mxGeometry x="65" y="220" width="10" height="40" as="geometry" />
        </mxCell>
        <mxCell id="ZGMj8C8FijMz7QQSWvRR-22" value="setId()" style="html=1;align=left;spacingLeft=2;endArrow=block;rounded=0;edgeStyle=orthogonalEdgeStyle;curved=0;rounded=0;" edge="1" target="ZGMj8C8FijMz7QQSWvRR-21" parent="ZGMj8C8FijMz7QQSWvRR-11">
          <mxGeometry relative="1" as="geometry">
            <mxPoint x="70" y="200" as="sourcePoint" />
            <Array as="points">
              <mxPoint x="100" y="230" />
            </Array>
          </mxGeometry>
        </mxCell>
        <mxCell id="ZGMj8C8FijMz7QQSWvRR-53" value="" style="html=1;points=[[0,0,0,0,5],[0,1,0,0,-5],[1,0,0,0,5],[1,1,0,0,-5]];perimeter=orthogonalPerimeter;outlineConnect=0;targetShapes=umlLifeline;portConstraint=eastwest;newEdgeStyle={&quot;curved&quot;:0,&quot;rounded&quot;:0};" vertex="1" parent="ZGMj8C8FijMz7QQSWvRR-11">
          <mxGeometry x="63" y="130" width="10" height="40" as="geometry" />
        </mxCell>
        <mxCell id="ZGMj8C8FijMz7QQSWvRR-54" value="addImage(image)" style="html=1;align=left;spacingLeft=2;endArrow=block;rounded=0;edgeStyle=orthogonalEdgeStyle;curved=0;rounded=0;" edge="1" target="ZGMj8C8FijMz7QQSWvRR-53" parent="ZGMj8C8FijMz7QQSWvRR-11">
          <mxGeometry relative="1" as="geometry">
            <mxPoint x="68" y="110" as="sourcePoint" />
            <Array as="points">
              <mxPoint x="98" y="140" />
            </Array>
          </mxGeometry>
        </mxCell>
        <mxCell id="ZGMj8C8FijMz7QQSWvRR-13" value="onCreate(saveInstanceState)" style="html=1;verticalAlign=bottom;endArrow=block;curved=0;rounded=0;" edge="1" parent="1">
          <mxGeometry width="80" relative="1" as="geometry">
            <mxPoint x="-20" y="251" as="sourcePoint" />
            <mxPoint x="124" y="251" as="targetPoint" />
            <mxPoint as="offset" />
          </mxGeometry>
        </mxCell>
        <mxCell id="ZGMj8C8FijMz7QQSWvRR-15" value="saveItem(view)" style="html=1;verticalAlign=bottom;endArrow=block;curved=0;rounded=0;" edge="1" parent="1">
          <mxGeometry width="80" relative="1" as="geometry">
            <mxPoint x="40" y="350" as="sourcePoint" />
            <mxPoint x="120" y="350" as="targetPoint" />
          </mxGeometry>
        </mxCell>
        <mxCell id="ZGMj8C8FijMz7QQSWvRR-23" value=": View.OnClickListerer" style="shape=umlLifeline;perimeter=lifelinePerimeter;whiteSpace=wrap;html=1;container=1;dropTarget=0;collapsible=0;recursiveResize=0;outlineConnect=0;portConstraint=eastwest;newEdgeStyle={&quot;curved&quot;:0,&quot;rounded&quot;:0};" vertex="1" parent="1">
          <mxGeometry x="-200" y="170" width="150" height="470" as="geometry" />
        </mxCell>
        <mxCell id="ZGMj8C8FijMz7QQSWvRR-24" value="" style="html=1;points=[[0,0,0,0,5],[0,1,0,0,-5],[1,0,0,0,5],[1,1,0,0,-5]];perimeter=orthogonalPerimeter;outlineConnect=0;targetShapes=umlLifeline;portConstraint=eastwest;newEdgeStyle={&quot;curved&quot;:0,&quot;rounded&quot;:0};" vertex="1" parent="ZGMj8C8FijMz7QQSWvRR-23">
          <mxGeometry x="70" y="180" width="10" height="270" as="geometry" />
        </mxCell>
        <mxCell id="ZGMj8C8FijMz7QQSWvRR-25" value="onClick(view)" style="html=1;verticalAlign=bottom;startArrow=none;endArrow=block;startSize=8;curved=0;rounded=0;entryX=0;entryY=0;entryDx=0;entryDy=5;startFill=0;" edge="1" target="ZGMj8C8FijMz7QQSWvRR-24" parent="ZGMj8C8FijMz7QQSWvRR-23">
          <mxGeometry relative="1" as="geometry">
            <mxPoint y="185" as="sourcePoint" />
          </mxGeometry>
        </mxCell>
        <mxCell id="ZGMj8C8FijMz7QQSWvRR-27" value="loadItems(context)" style="html=1;verticalAlign=bottom;startArrow=none;endArrow=block;startSize=8;curved=0;rounded=0;entryX=0;entryY=0;entryDx=0;entryDy=5;startFill=0;" edge="1" target="ZGMj8C8FijMz7QQSWvRR-26" parent="1">
          <mxGeometry x="0.008" relative="1" as="geometry">
            <mxPoint x="140" y="275" as="sourcePoint" />
            <mxPoint as="offset" />
          </mxGeometry>
        </mxCell>
        <mxCell id="ZGMj8C8FijMz7QQSWvRR-36" value="Dimension&lt;div&gt;(length_str, width_str, height_str)&lt;/div&gt;" style="html=1;verticalAlign=bottom;endArrow=block;curved=0;rounded=0;" edge="1" parent="1" target="ZGMj8C8FijMz7QQSWvRR-28">
          <mxGeometry x="0.0058" width="80" relative="1" as="geometry">
            <mxPoint x="144" y="400" as="sourcePoint" />
            <mxPoint x="433" y="400" as="targetPoint" />
            <mxPoint as="offset" />
          </mxGeometry>
        </mxCell>
        <mxCell id="ZGMj8C8FijMz7QQSWvRR-38" value="Item&lt;div&gt;(title_str, maker_str, description_str,&amp;nbsp;&lt;/div&gt;&lt;div&gt;dimensions, image, null )&lt;/div&gt;" style="html=1;verticalAlign=bottom;endArrow=block;curved=0;rounded=0;" edge="1" parent="1">
          <mxGeometry width="80" relative="1" as="geometry">
            <mxPoint x="140" y="614.5" as="sourcePoint" />
            <mxPoint x="330" y="614.5" as="targetPoint" />
          </mxGeometry>
        </mxCell>
        <mxCell id="ZGMj8C8FijMz7QQSWvRR-39" value="dimensions" style="html=1;verticalAlign=bottom;endArrow=open;dashed=1;endSize=8;curved=0;rounded=0;" edge="1" parent="1">
          <mxGeometry relative="1" as="geometry">
            <mxPoint x="330" y="430" as="sourcePoint" />
            <mxPoint x="140" y="430" as="targetPoint" />
          </mxGeometry>
        </mxCell>
        <mxCell id="ZGMj8C8FijMz7QQSWvRR-40" value="item" style="html=1;verticalAlign=bottom;endArrow=open;dashed=1;endSize=8;curved=0;rounded=0;" edge="1" parent="1">
          <mxGeometry relative="1" as="geometry">
            <mxPoint x="330" y="810" as="sourcePoint" />
            <mxPoint x="140" y="810" as="targetPoint" />
          </mxGeometry>
        </mxCell>
        <mxCell id="ZGMj8C8FijMz7QQSWvRR-43" value="addItem(item)" style="html=1;verticalAlign=bottom;endArrow=block;curved=0;rounded=0;entryX=0;entryY=0;entryDx=0;entryDy=5;" edge="1" target="ZGMj8C8FijMz7QQSWvRR-42" parent="1" source="ZGMj8C8FijMz7QQSWvRR-14">
          <mxGeometry relative="1" as="geometry">
            <mxPoint x="140" y="945" as="sourcePoint" />
          </mxGeometry>
        </mxCell>
        <mxCell id="ZGMj8C8FijMz7QQSWvRR-50" value="saveItems(context)" style="html=1;verticalAlign=bottom;startArrow=none;endArrow=block;startSize=8;curved=0;rounded=0;entryX=0;entryY=0;entryDx=0;entryDy=5;startFill=0;" edge="1" target="ZGMj8C8FijMz7QQSWvRR-49" parent="1">
          <mxGeometry relative="1" as="geometry">
            <mxPoint x="140" y="915" as="sourcePoint" />
          </mxGeometry>
        </mxCell>
      </root>
    </mxGraphModel>
  </diagram>
</mxfile>
